<svg width="24" height="24" viewBox="0 0 24 24" fill="none" xmlns="http://www.w3.org/2000/svg">
<g clip-path="url(#clip0_2521_45042)">
<path fill-rule="evenodd" clip-rule="evenodd" d="M20.1067 1.64671L22.3534 3.89338C22.5553 4.09475 22.6688 4.3682 22.6688 4.65338C22.6688 4.93855 22.5553 5.212 22.3534 5.41338L13.2334 14.62L10.0001 15.3334C9.91811 15.3424 9.83539 15.3424 9.75341 15.3334C9.43227 15.3318 9.12869 15.1865 8.92603 14.9374C8.72337 14.6882 8.64291 14.3615 8.70675 14.0467L9.44675 10.84L18.5867 1.64671C18.7881 1.44479 19.0616 1.3313 19.3467 1.3313C19.6319 1.3313 19.9054 1.44479 20.1067 1.64671ZM4.00008 20H18.6667V11.3334L20.0001 10V20C20.0001 20.7364 19.4031 21.3334 18.6667 21.3334H4.00008C3.2637 21.3334 2.66675 20.7364 2.66675 20V5.33338C2.66675 4.597 3.2637 4.00004 4.00008 4.00004H14.1467L12.8134 5.33338H4.00008V20ZM12.5401 13.3867L10.1001 13.9267L10.6667 11.5067L17.5467 4.58004L19.4267 6.46004L12.5401 13.3867ZM18.3001 3.82671L20.1801 5.70671L21.2267 4.66671L19.3334 2.77338L18.3001 3.82671Z" fill="#0079B8"/>
</g>
<defs>
<clipPath id="clip0_2521_45042">
<rect width="24" height="24" fill="white"/>
</clipPath>
</defs>
</svg>
