<svg width="28" height="28" viewBox="0 0 28 28" fill="none" xmlns="http://www.w3.org/2000/svg"><path d="M9.164 25.905a12.85 12.85 0 1 1 9.671-23.81 12.85 12.85 0 0 1-9.67 23.81z" stroke="#0072A3" stroke-width=".3" stroke-dasharray="1 1"/><path d="M17.167 8.479l-1.406-.003c-1.58 0-2.602 1.159-2.602 2.951v1.36h-1.414c-.122 0-.22.11-.22.245v1.972c0 .134.098.244.22.244h1.414v4.974c0 .134.1.244.222.244h1.844c.123 0 .222-.11.222-.244v-4.974H17.1c.122 0 .22-.11.22-.244l.002-1.972a.26.26 0 0 0-.065-.173.21.21 0 0 0-.157-.071h-1.653v-1.154c0-.554.12-.835.772-.835l.948-.001c.122 0 .22-.11.22-.244v-1.83c0-.136-.098-.245-.22-.245z" fill="#0072A3"/></svg>