<svg width="24" height="24" viewBox="0 0 24 24" fill="none" xmlns="http://www.w3.org/2000/svg">
<g clip-path="url(#clip0_2521_45043)">
<path fill-rule="evenodd" clip-rule="evenodd" d="M11.9999 1.66675C6.11992 1.66675 1.33325 5.85342 1.33325 11.0001C1.33325 16.1467 6.11992 20.3334 11.9999 20.3334C13.1 20.3321 14.1947 20.1796 15.2533 19.8801L18.9399 22.2267C19.1449 22.3583 19.4053 22.3675 19.6192 22.2509C19.833 22.1343 19.9662 21.9103 19.9666 21.6667V17.1801C21.6518 15.5635 22.6133 13.3352 22.6333 11.0001C22.6666 5.85342 17.8799 1.66675 11.9999 1.66675ZM16.4799 8.33341C16.8481 8.33341 17.1466 8.03494 17.1466 7.66675C17.1466 7.29856 16.8481 7.00008 16.4799 7.00008H7.51992C7.15173 7.00008 6.85325 7.29856 6.85325 7.66675C6.85325 8.03494 7.15173 8.33341 7.51992 8.33341H16.4799ZM9.49992 13.6667C9.13173 13.6667 8.83325 13.9652 8.83325 14.3334C8.83325 14.7016 9.13173 15.0001 9.49992 15.0001H14.4999C14.8681 15.0001 15.1666 14.7016 15.1666 14.3334C15.1666 13.9652 14.8681 13.6667 14.4999 13.6667H9.49992ZM7.33325 10.3334H16.6666C17.0348 10.3334 17.3333 10.6319 17.3333 11.0001C17.3333 11.3683 17.0348 11.6667 16.6666 11.6667H7.33325C6.96506 11.6667 6.66658 11.3683 6.66658 11.0001C6.66658 10.6319 6.96506 10.3334 7.33325 10.3334ZM18.6466 16.8934C18.6472 16.7086 18.7244 16.5324 18.8599 16.4067C20.4053 15.0305 21.3025 13.0692 21.3333 11.0001C21.3333 6.58675 17.1466 3.00008 11.9999 3.00008C6.85325 3.00008 2.66659 6.58675 2.66659 11.0001C2.66659 15.4134 6.85325 19.0001 11.9999 19.0001C13.0759 19.001 14.1457 18.8392 15.1733 18.5201C15.3595 18.4624 15.5617 18.4892 15.7266 18.5934L18.6466 20.4534V16.8934Z" fill="#0079B8"/>
</g>
<defs>
<clipPath id="clip0_2521_45043">
<rect width="24" height="24" fill="white"/>
</clipPath>
</defs>
</svg>
