<svg width="28" height="28" viewBox="0 0 28 28" fill="none" xmlns="http://www.w3.org/2000/svg"><path d="M9.164 25.905a12.85 12.85 0 1 1 9.671-23.81 12.85 12.85 0 0 1-9.67 23.81z" stroke="#0072A3" stroke-width=".3" stroke-dasharray="1 1"/><path d="M9.064 9.46c0-.36.122-.658.366-.893.243-.234.56-.352.95-.352.383 0 .692.116.929.347.244.238.366.548.366.93 0 .347-.119.636-.356.867-.243.238-.563.357-.96.357h-.01c-.383 0-.693-.119-.93-.357a1.224 1.224 0 0 1-.355-.899zm.136 9.474v-7.233h2.318v7.233H9.2zm3.602 0h2.317v-4.038c0-.253.028-.448.084-.585a1.57 1.57 0 0 1 .443-.623c.199-.17.448-.254.747-.254.78 0 1.169.545 1.169 1.635v3.865h2.317v-4.147c0-1.068-.243-1.878-.73-2.43-.488-.553-1.132-.829-1.932-.829-.898 0-1.597.4-2.098 1.202v.022h-.01l.01-.022v-1.029h-2.317c.014.232.02.95.02 2.155 0 1.206-.006 2.898-.02 5.078z" fill="#0072A3"/></svg>