<svg width="24" height="24" viewBox="0 0 24 24" fill="none" xmlns="http://www.w3.org/2000/svg">
<path d="M15.6069 1C16.3734 1.11864 16.9116 1.62712 17.4172 2.18644C18.1348 2.94915 18.8687 3.69492 19.5863 4.45763C20.1082 4.98305 20.3528 5.62712 20.3528 6.37288V11.3051C20.3528 11.3051 20.467 11.339 20.5159 11.339C21.2824 11.3729 21.9837 12.0339 22 13.0169V18.322C22 19.0169 21.6901 19.5424 21.0704 19.8475C20.8584 19.9492 20.5974 19.983 20.3691 20.0339C20.3365 20.3898 20.3528 20.7627 20.2712 21.1186C20.0266 22.2542 19.097 23 17.9554 23H6.96309C5.78884 23 4.82661 22.1356 4.66352 20.9322C4.61459 20.6271 4.6309 20.322 4.61459 20.0169H4.51674C3.61974 19.9492 3 19.3051 3 18.3729V13.0339C3 12.2203 3.47296 11.6271 4.20687 11.4237C4.33734 11.3898 4.48412 11.3729 4.64721 11.3559V3.52542C4.64721 2.40678 5.28326 1.47458 6.27811 1.15254C6.40858 1.10169 6.53906 1.0678 6.66953 1.0339V1H15.6069ZM15.3785 2.28814H7.14249C6.35966 2.28814 5.91931 2.74576 5.91931 3.55932V11.3051H19.1296V6.32203H16.8953C15.9494 6.32203 15.3785 5.72881 15.3785 4.74576V2.28814ZM20.3202 18.6949C20.6953 18.6949 20.7931 18.5932 20.7931 18.2034V13.1186C20.7931 12.7288 20.6953 12.6271 20.3039 12.6271H4.72876C4.33734 12.6271 4.23949 12.7288 4.23949 13.1356V18.1525C4.23949 18.6102 4.32103 18.6949 4.74506 18.6949H20.3202ZM19.1296 20H5.903V20.3559C5.903 21.2542 6.32704 21.6949 7.19142 21.6949H18.0858C18.6403 21.6441 19.0644 21.2034 19.097 20.6441V20H19.1296ZM18.3631 5.0339C17.776 4.42373 17.2052 3.83051 16.618 3.22034V4.88136C16.618 4.88136 16.7322 5.0339 16.7974 5.0339C17.3193 5.0339 17.8412 5.0339 18.3631 5.0339Z" fill="#0079B8"/>
<path d="M7.75167 16.4011H6.91431V17.5144C6.91431 17.6736 6.87122 17.7943 6.78502 17.8766C6.69882 17.9589 6.59005 18 6.4587 18C6.32119 18 6.21036 17.9598 6.12622 17.8793C6.04207 17.797 6 17.6772 6 17.5198V14.4883C6 14.313 6.04618 14.1878 6.13853 14.1127C6.23089 14.0376 6.37763 14 6.57876 14H7.75167C8.09851 14 8.36532 14.0233 8.55208 14.0698C8.73679 14.1145 8.89584 14.1887 9.02925 14.2924C9.1647 14.3962 9.26732 14.5231 9.3371 14.6734C9.40688 14.8236 9.44176 14.9926 9.44176 15.1804C9.44176 15.581 9.30015 15.8851 9.01693 16.0926C8.73371 16.2982 8.31195 16.4011 7.75167 16.4011ZM7.53002 14.5983H6.91431V15.8001H7.53002C7.74551 15.8001 7.92509 15.7805 8.06875 15.7411C8.21447 15.7018 8.3253 15.6374 8.40123 15.548C8.47717 15.4585 8.51514 15.3414 8.51514 15.1965C8.51514 15.023 8.45664 14.8817 8.33966 14.7726C8.20831 14.6564 7.93843 14.5983 7.53002 14.5983Z" fill="#0079B8"/>
<path d="M11.272 14H12.4634C12.7733 14 13.0391 14.025 13.2607 14.0751C13.4824 14.1252 13.6835 14.2191 13.8641 14.3568C14.3341 14.7074 14.5691 15.2403 14.5691 15.9557C14.5691 16.1918 14.5455 16.4073 14.4983 16.6023C14.4511 16.7972 14.3782 16.9734 14.2797 17.1308C14.1812 17.2864 14.055 17.4259 13.9011 17.5493C13.78 17.6441 13.6476 17.7201 13.5039 17.7773C13.3603 17.8346 13.2053 17.8748 13.0391 17.8981C12.8749 17.9213 12.6892 17.9329 12.4819 17.9329H11.2905C11.1243 17.9329 10.9991 17.9115 10.9149 17.8685C10.8308 17.8238 10.7754 17.7621 10.7487 17.6834C10.724 17.603 10.7117 17.4992 10.7117 17.3722V14.4883C10.7117 14.3166 10.7559 14.1923 10.8441 14.1154C10.9324 14.0385 11.075 14 11.272 14ZM11.626 14.6304V17.2998H12.3187C12.4706 17.2998 12.5896 17.2962 12.6758 17.2891C12.762 17.2819 12.8513 17.264 12.9436 17.2354C13.036 17.2068 13.116 17.1666 13.1838 17.1147C13.4896 16.8893 13.6425 16.5012 13.6425 15.9504C13.6425 15.5623 13.5747 15.2716 13.4393 15.0785C13.3059 14.8853 13.1407 14.7628 12.9436 14.7109C12.7466 14.6573 12.5086 14.6304 12.2294 14.6304H11.626Z" fill="#0079B8"/>
<path d="M18.569 14.6144H16.7681V15.6204H18.2735C18.413 15.6204 18.5167 15.6481 18.5844 15.7036C18.6542 15.7572 18.6891 15.8296 18.6891 15.9209C18.6891 16.0121 18.6542 16.0845 18.5844 16.1382C18.5146 16.1918 18.411 16.2186 18.2735 16.2186L16.6876 16.1382L16.7681 17.5144C16.7681 17.679 16.725 17.8015 16.6388 17.882C16.5546 17.9607 16.4459 18 16.3125 18C16.177 18 16.0662 17.9598 15.98 17.8793C15.8958 17.7988 15.8538 17.6772 15.8538 17.5144V14.4883C15.8538 14.3738 15.8733 14.2808 15.9123 14.2093C15.9513 14.1359 16.0118 14.0832 16.0939 14.051C16.178 14.017 16.2848 14 16.4141 14H18.569C18.7147 14 18.8225 14.0286 18.8923 14.0858C18.9641 14.1413 19 14.2146 19 14.3058C19 14.3988 18.9641 14.474 18.8923 14.5312C18.8225 14.5866 18.7147 14.6144 18.569 14.6144Z" fill="#0079B8"/>
</svg>
