<svg xmlns="http://www.w3.org/2000/svg" width="17" height="17" fill="none" viewBox="0 0 17 17"><path fill="#0079B8" d="M15.876 8.278c-1.591-2.942-4.382-4.722-7.47-4.722-3.089 0-5.884 1.78-7.462 4.722L.812 8.5l.123.226c1.591 2.942 4.382 4.723 7.47 4.723 3.089 0 5.885-1.757 7.471-4.723L16 8.5l-.123-.222zm-7.47 4.203c-2.659 0-5.1-1.483-6.517-3.981 1.417-2.498 3.858-3.981 6.517-3.981 2.658 0 5.071 1.487 6.511 3.98-1.44 2.499-3.857 3.982-6.511 3.982z"/><path fill="#0079B8" d="M8.543 5.274a3.248 3.248 0 0 0-2.978 2.019 3.235 3.235 0 0 0 2.387 4.402 3.235 3.235 0 0 0 3.316-1.395 3.243 3.243 0 0 0 .285-3.041 3.234 3.234 0 0 0-1.767-1.746 3.25 3.25 0 0 0-1.243-.239zm0 5.535a2.302 2.302 0 0 1-1.268-.397 2.302 2.302 0 0 1-.958-2.355A2.299 2.299 0 0 1 9.44 6.392 2.299 2.299 0 0 1 10.861 8.5a2.306 2.306 0 0 1-1.43 2.139 2.311 2.311 0 0 1-.888.17z"/></svg>