<svg width="24" height="24" viewBox="0 0 24 24" fill="none" xmlns="http://www.w3.org/2000/svg">
<g clip-path="url(#clip0_2521_45046)">
<path fill-rule="evenodd" clip-rule="evenodd" d="M16.6201 17.0335C17.2462 16.3767 18.1128 16.0036 19.0201 16.0001H19.0268C20.8677 16.0001 22.3601 17.4925 22.3601 19.3335C22.3601 21.1744 20.8677 22.6668 19.0268 22.6668C17.1858 22.6668 15.6935 21.1744 15.6935 19.3335C15.6943 18.9442 15.7643 18.5582 15.9001 18.1935L7.86013 14.1468C6.96817 15.2376 5.48663 15.6498 4.15948 15.1763C2.83233 14.7028 1.94629 13.4459 1.94629 12.0368C1.94629 10.6277 2.83233 9.37081 4.15948 8.89729C5.48663 8.42378 6.96817 8.83593 7.86013 9.92678L15.9201 5.82678C15.2948 4.18712 16.0147 2.3405 17.5848 1.55666C19.1548 0.772816 21.0634 1.30719 21.9982 2.79234C22.933 4.27749 22.5893 6.22945 21.2035 7.30604C19.8177 8.38264 17.8414 8.23305 16.6335 6.96012L8.49346 11.1001C8.69337 11.7063 8.69337 12.3606 8.49346 12.9668L16.6201 17.0335ZM21.0201 4.66678C21.0201 3.56221 20.1247 2.66678 19.0201 2.66678C17.9156 2.66678 17.0201 3.56221 17.0201 4.66678C17.0201 5.77135 17.9156 6.66678 19.0201 6.66678C20.1247 6.66678 21.0201 5.77135 21.0201 4.66678ZM5.33346 14.0001C4.22889 14.0001 3.33346 13.1047 3.33346 12.0001C3.33346 10.8955 4.22889 10.0001 5.33346 10.0001C6.43803 10.0001 7.33346 10.8955 7.33346 12.0001C7.33346 13.1047 6.43803 14.0001 5.33346 14.0001ZM17.0201 19.3335C17.0201 20.438 17.9156 21.3335 19.0201 21.3335C20.1247 21.3335 21.0201 20.438 21.0201 19.3335C21.0201 18.2289 20.1247 17.3335 19.0201 17.3335C17.9156 17.3335 17.0201 18.2289 17.0201 19.3335Z" fill="#0079B8"/>
</g>
<defs>
<clipPath id="clip0_2521_45046">
<rect width="24" height="24" fill="white"/>
</clipPath>
</defs>
</svg>
