<svg width="28" height="28" viewBox="0 0 28 28" fill="none" xmlns="http://www.w3.org/2000/svg"><path d="M9.164 25.905a12.85 12.85 0 1 1 9.671-23.81 12.85 12.85 0 0 1-9.67 23.81z" stroke="#0072A3" stroke-width=".3" stroke-dasharray="1 1"/><g clip-path="url(#clip0_369_18758)"><path d="M11.537 19.746c5.148 0 7.964-4.048 7.964-7.56 0-.114-.003-.229-.008-.343a5.546 5.546 0 0 0 1.396-1.375 5.818 5.818 0 0 1-1.607.418 2.695 2.695 0 0 0 1.23-1.47c-.54.304-1.14.526-1.777.645a2.867 2.867 0 0 0-2.043-.84c-1.546 0-2.8 1.19-2.8 2.657 0 .209.026.412.074.606-2.326-.111-4.39-1.168-5.77-2.776-.24.393-.378.849-.378 1.336 0 .921.494 1.735 1.245 2.211a2.891 2.891 0 0 1-1.267-.332l-.001.034c0 1.287.965 2.36 2.245 2.604a2.949 2.949 0 0 1-1.264.046c.357 1.056 1.39 1.824 2.615 1.845a5.81 5.81 0 0 1-3.476 1.138 6.03 6.03 0 0 1-.668-.037 8.234 8.234 0 0 0 4.29 1.193z" fill="#0072A3"/></g><defs><clipPath id="clip0_369_18758"><path fill="#fff" transform="translate(7 9)" d="M0 0h14v11H0z"/></clipPath></defs></svg>