<svg width="149" height="24" viewBox="0 0 149 24" fill="none" xmlns="http://www.w3.org/2000/svg">
<g clip-path="url(#clip0_3054_51087)">
<rect width="149" height="24" fill="#1A4C72"/>
<path d="M101.88 18H106.54C110.82 18 113.84 15.14 113.84 11.12C113.84 7.1 110.82 4.26 106.54 4.26H101.88V18ZM103.16 16.82V5.44H106.54C110.06 5.44 112.56 7.8 112.56 11.12C112.56 14.46 110.06 16.82 106.54 16.82H103.16ZM121.437 18.24C124.337 18.24 126.777 15.76 126.777 12.82C126.777 9.88 124.337 7.42 121.437 7.42C118.537 7.42 116.077 9.88 116.077 12.82C116.077 15.76 118.537 18.24 121.437 18.24ZM121.437 17.1C119.217 17.1 117.377 15.16 117.377 12.82C117.377 10.5 119.217 8.56 121.437 8.56C123.637 8.56 125.477 10.5 125.477 12.82C125.477 15.16 123.637 17.1 121.437 17.1ZM133.994 18.24C135.394 18.24 136.694 17.64 137.654 16.68L136.794 15.84C136.074 16.62 135.074 17.1 133.994 17.1C131.754 17.1 129.994 15.22 129.994 12.82C129.994 10.44 131.754 8.56 133.994 8.56C135.054 8.56 136.034 9.02 136.754 9.78L137.614 8.94C136.654 8 135.374 7.42 133.994 7.42C131.054 7.42 128.694 9.8 128.694 12.82C128.694 15.84 131.054 18.24 133.994 18.24ZM143.618 18.24C145.698 18.24 147.338 17.02 147.338 15.26C147.338 13.46 145.858 12.8 143.958 12.2C141.938 11.54 141.138 11.12 141.138 10.18C141.138 9.18 142.198 8.56 143.458 8.56C144.418 8.56 145.498 8.9 146.538 9.54L147.158 8.58C146.058 7.86 144.718 7.42 143.458 7.42C141.458 7.42 139.898 8.6 139.898 10.32C139.898 11.78 140.878 12.56 143.358 13.28C144.998 13.78 146.098 14.26 146.098 15.38C146.098 16.38 145.038 17.1 143.618 17.1C142.458 17.1 141.198 16.64 139.998 15.78L139.338 16.7C140.558 17.68 142.158 18.24 143.618 18.24Z" fill="white"/>
<path d="M41.2408 17.9753L37.0373 6.76678C36.982 6.61131 36.9008 6.40636 36.9008 6.22968C36.9008 5.74205 37.3289 5.28269 37.9452 5.28269C38.4803 5.28269 38.8309 5.61484 38.9933 6.10247L42.4734 15.7597L45.9794 6.07774C46.138 5.61837 46.4628 5.28622 46.9942 5.28622H47.1013C47.6659 5.28622 48.0128 5.61837 48.1715 6.07774L51.6516 15.7597L55.1908 6.053C55.3273 5.64311 55.6152 5.28622 56.1798 5.28622C56.7666 5.28622 57.1947 5.72085 57.1947 6.20848C57.1947 6.38869 57.1135 6.59011 57.0618 6.74558L52.8326 17.9788C52.6185 18.5654 52.1904 18.8728 51.707 18.8728H51.6258C51.087 18.8728 50.6847 18.5654 50.4965 17.9788L47.0459 8.45583L43.5621 17.9788C43.3739 18.5654 42.9716 18.8728 42.4365 18.8728H42.3811C41.8792 18.8693 41.4548 18.5618 41.2408 17.9753ZM71.8791 6.25795V17.8481C71.8791 18.4099 72.333 18.8481 72.9272 18.8481C73.5176 18.8481 73.9457 18.3852 73.9457 17.8481V13.3463C73.9457 9.51944 76.1453 7.59011 78.8282 7.28269C79.367 7.20495 79.7435 6.81979 79.7435 6.28269C79.7435 5.71731 79.3412 5.28269 78.7212 5.28269C77.2229 5.28269 74.9643 6.32509 73.9457 8.53357V6.25795C73.9457 5.69258 73.4918 5.25442 72.8976 5.25442C72.333 5.25795 71.8791 5.71731 71.8791 6.25795ZM86.3642 18.9753C88.6744 18.9753 90.2023 18.1837 91.4866 16.9929C91.7006 16.8163 91.8039 16.5866 91.8039 16.3604C91.8039 15.9011 91.4091 15.5194 90.9108 15.5194C90.6746 15.5194 90.4864 15.6219 90.3314 15.7456C89.3313 16.636 88.0987 17.2721 86.4158 17.2721C83.9949 17.2721 81.9209 15.6714 81.633 12.8269H91.4607C91.9589 12.8269 92.4092 12.4452 92.4092 11.9081C92.4092 8.42403 90.1211 5.24735 86.1022 5.24735C82.3453 5.24735 79.5848 8.30035 79.5848 12.0848V12.1378C79.5848 16.2049 82.6331 18.9753 86.3642 18.9753ZM81.6367 11.3746C81.895 8.80565 83.6849 6.90106 86.0505 6.90106C88.7556 6.90106 90.1764 8.98587 90.3868 11.3746H81.6367ZM57.2353 14.8587C57.2353 17.5724 59.8297 18.9788 62.3983 18.9788C64.8266 18.9788 66.4356 17.9046 67.3988 16.6996V17.9647C67.3988 18.477 67.7974 18.8869 68.3805 18.8869C68.9452 18.8869 69.3732 18.477 69.3732 17.9152V10.6078C69.3732 8.91873 68.8898 7.63604 67.9524 6.74205C66.9375 5.77032 65.4392 5.28269 63.4906 5.28269C61.7266 5.28269 60.7006 5.46996 59.3389 6.03534C58.9624 6.19788 58.7779 6.44876 58.7779 6.85866C58.7779 7.31802 59.206 7.70318 59.6895 7.70318C59.7928 7.70318 59.9293 7.67491 60.0622 7.62544C61.0808 7.19081 61.889 7.0212 63.2803 7.0212C65.871 7.0212 67.3988 8.25088 67.3988 10.6325V11.0954C66.1662 10.7597 64.9078 10.53 63.1437 10.53C59.6415 10.53 57.2353 12.0141 57.2353 14.8057V14.8587ZM67.4284 13.8375C67.4284 15.9364 65.3396 17.4205 62.8005 17.4205C60.9258 17.4205 59.3241 16.4488 59.3241 14.7809V14.7314C59.3241 13.0707 60.7708 11.9929 63.3615 11.9929C65.0443 11.9929 66.4098 12.2756 67.4284 12.5583V13.8375V13.8375ZM3.77512 6.11307C3.32119 5.16254 2.20298 4.73145 1.15858 5.17668C0.114173 5.62191 -0.273326 6.73145 0.199054 7.68551L4.58702 16.8163C5.27714 18.2473 6.00786 19 7.36964 19C8.82738 19 9.46583 18.1837 10.1523 16.8163C10.1523 16.8163 13.9793 8.83746 14.0199 8.75265C14.0605 8.66784 14.1823 8.40989 14.5734 8.41343C14.9019 8.41696 15.1787 8.66784 15.1787 9.00353V16.8092C15.1787 18.0106 15.8762 19 17.2158 19C18.5555 19 19.2788 18.0106 19.2788 16.8092V10.424C19.2788 9.19081 20.2014 8.39223 21.4562 8.39223C22.7109 8.39223 23.5487 9.21908 23.5487 10.424V16.8092C23.5487 18.0106 24.2462 19 25.5858 19C26.9254 19 27.6525 18.0106 27.6525 16.8092V10.424C27.6525 9.19081 28.5714 8.39223 29.8298 8.39223C31.0846 8.39223 31.9223 9.21908 31.9223 10.424V16.8092C31.9223 18.0106 32.6198 19 33.9595 19C35.2991 19 36.0262 18.0106 36.0262 16.8092V9.54064C36.0225 6.86926 33.7823 5 31.0809 5C28.3869 5 26.6966 6.78445 26.6966 6.78445C25.7999 5.67138 24.5635 5 22.4674 5C20.2605 5 18.3266 6.78445 18.3266 6.78445C17.4299 5.67138 15.8983 5 14.6325 5C12.6728 5 11.1192 5.82332 10.1707 7.90106L7.36964 14.2261L3.77512 6.11307ZM92.5789 6.90459C92.5789 7.80212 93.3244 8.54064 94.2876 8.54064C95.2435 8.54064 96 7.78799 96 6.89046V6.88693C96 5.99293 95.2545 5.24735 94.2876 5.24735C93.3355 5.24735 92.5789 6 92.5789 6.89399V6.90459ZM95.6679 6.89399C95.6679 7.62544 95.0663 8.23675 94.2839 8.23675C93.4942 8.23675 92.9 7.63251 92.9 6.90106V6.89399C92.9 6.16608 93.5015 5.55124 94.2839 5.55124C95.0737 5.55124 95.6679 6.15548 95.6679 6.88693V6.89399ZM93.6307 7.4947C93.6307 7.59364 93.7119 7.66784 93.8152 7.66784C93.9186 7.66784 93.9961 7.59011 93.9961 7.4947V7.15194H94.2876L94.6419 7.58304C94.6862 7.63251 94.7415 7.67138 94.8227 7.67138C94.9113 7.67138 94.9962 7.60777 94.9962 7.51237C94.9962 7.45936 94.974 7.42049 94.9371 7.37809L94.6862 7.08481C94.8855 7.00353 95.0146 6.85159 95.0146 6.60071V6.59364C95.0146 6.44876 94.963 6.32155 94.8707 6.23322C94.7674 6.12721 94.6013 6.07067 94.3873 6.07067H93.8152C93.7119 6.07067 93.6307 6.14841 93.6307 6.24735V7.4947V7.4947ZM93.9961 6.84099V6.38516H94.3577C94.5349 6.38516 94.6382 6.4629 94.6382 6.61131V6.61484C94.6382 6.74912 94.5423 6.84099 94.3651 6.84099H93.9961V6.84099Z" fill="white"/>
</g>
<defs>
<clipPath id="clip0_3054_51087">
<rect width="149" height="24" fill="#1A4C72"/>
</clipPath>
</defs>
</svg>
